solid box_hull
  facet normal 0.0 0.0 1.0
    outer loop
      vertex -50.0 -10.0 0.0
      vertex 50.0 -10.0 0.0
      vertex 50.0 10.0 0.0
    endloop
  endfacet
  facet normal 0.0 0.0 1.0
    outer loop
      vertex -50.0 -10.0 0.0
      vertex 50.0 10.0 0.0
      vertex -50.0 10.0 0.0
    endloop
  endfacet
  facet normal 0.0 0.0 -1.0
    outer loop
      vertex -50.0 -10.0 10.0
      vertex -50.0 10.0 10.0
      vertex 50.0 10.0 10.0
    endloop
  endfacet
  facet normal 0.0 0.0 -1.0
    outer loop
      vertex -50.0 -10.0 10.0
      vertex 50.0 10.0 10.0
      vertex 50.0 -10.0 10.0
    endloop
  endfacet
  facet normal 0.0 1.0 0.0
    outer loop
      vertex -50.0 -10.0 0.0
      vertex -50.0 -10.0 10.0
      vertex 50.0 -10.0 10.0
    endloop
  endfacet
  facet normal 0.0 1.0 0.0
    outer loop
      vertex -50.0 -10.0 0.0
      vertex 50.0 -10.0 10.0
      vertex 50.0 -10.0 0.0
    endloop
  endfacet
  facet normal -1.0 0.0 0.0
    outer loop
      vertex 50.0 -10.0 0.0
      vertex 50.0 -10.0 10.0
      vertex 50.0 10.0 10.0
    endloop
  endfacet
  facet normal -1.0 0.0 0.0
    outer loop
      vertex 50.0 -10.0 0.0
      vertex 50.0 10.0 10.0
      vertex 50.0 10.0 0.0
    endloop
  endfacet
  facet normal 0.0 -1.0 0.0
    outer loop
      vertex 50.0 10.0 0.0
      vertex 50.0 10.0 10.0
      vertex -50.0 10.0 10.0
    endloop
  endfacet
  facet normal 0.0 -1.0 0.0
    outer loop
      vertex 50.0 10.0 0.0
      vertex -50.0 10.0 10.0
      vertex -50.0 10.0 0.0
    endloop
  endfacet
  facet normal 1.0 0.0 -0.0
    outer loop
      vertex -50.0 10.0 0.0
      vertex -50.0 10.0 10.0
      vertex -50.0 -10.0 10.0
    endloop
  endfacet
  facet normal 1.0 0.0 0.0
    outer loop
      vertex -50.0 10.0 0.0
      vertex -50.0 -10.0 10.0
      vertex -50.0 -10.0 0.0
    endloop
  endfacet
endsolid box_hull
